[Header]
FileType HTR
DataType HTRS
FileVersion 1
NumSegments 64
NumFrames 4
DataFrameRate 24
EulerRotationOrder ZYX
CalibrationUnits mm
RotationUnits Degrees
GlobalAxisofGravity Y
BoneLengthAxis Y
ScaleFactor 1.0
[SegmentNames&Hierarchy]
Hips	GLOBAL
Spine	Hips
Spine1	Spine
Spine2	Spine1
Neck	Spine2
Head	Neck
LeftEye	Head
RightEye	Head
LeftShoulder	Spine2
LeftArm	LeftShoulder
LeftForeArm	LeftArm
LeftHand	LeftForeArm
LeftHandThumb1	LeftHand
LeftHandThumb2	LeftHandThumb1
LeftHandThumb3	LeftHandThumb2
LeftHandThumb4	LeftHandThumb3
LeftHandIndex1	LeftHand
LeftHandIndex2	LeftHandIndex1
LeftHandIndex3	LeftHandIndex2
LeftHandIndex4	LeftHandIndex3
LeftHandMiddle1	LeftHand
LeftHandMiddle2	LeftHandMiddle1
LeftHandMiddle3	LeftHandMiddle2
LeftHandMiddle4	LeftHandMiddle3
LeftHandRing1	LeftHand
LeftHandRing2	LeftHandRing1
LeftHandRing3	LeftHandRing2
LeftHandRing4	LeftHandRing3
LeftHandPinky1	LeftHand
LeftHandPinky2	LeftHandPinky1
LeftHandPinky3	LeftHandPinky2
LeftHandPinky4	LeftHandPinky3
RightShoulder	Spine2
RightArm	RightShoulder
RightForeArm	RightArm
RightHand	RightForeArm
RightHandPinky1	RightHand
RightHandPinky2	RightHandPinky1
RightHandPinky3	RightHandPinky2
RightHandPinky4	RightHandPinky3
RightHandRing1	RightHand
RightHandRing2	RightHandRing1
RightHandRing3	RightHandRing2
RightHandRing4	RightHandRing3
RightHandMiddle1	RightHand
RightHandMiddle2	RightHandMiddle1
RightHandMiddle3	RightHandMiddle2
RightHandMiddle4	RightHandMiddle3
RightHandIndex1	RightHand
RightHandIndex2	RightHandIndex1
RightHandIndex3	RightHandIndex2
RightHandIndex4	RightHandIndex3
RightHandThumb1	RightHand
RightHandThumb2	RightHandThumb1
RightHandThumb3	RightHandThumb2
RightHandThumb4	RightHandThumb3
LeftUpLeg	Hips
LeftLeg	LeftUpLeg
LeftFoot	LeftLeg
LeftToeBase	LeftFoot
RightUpLeg	Hips
RightLeg	RightUpLeg
RightFoot	RightLeg
RightToeBase	RightFoot
[BasePosition]
Hips	0	0	0	0	0	0	1
Spine	0	0	0	0	0	0	1
Spine1	0	0	0	0	0	0	1
Spine2	0	0	0	0	0	0	1
Neck	0	0	0	0	0	0	1
Head	0	0	0	0	0	0	1
LeftEye	0	0	0	0	0	0	1
RightEye	0	0	0	0	0	0	1
LeftShoulder	0	0	0	0	0	0	1
LeftArm	0	0	0	0	0	0	1
LeftForeArm	0	0	0	0	0	0	1
LeftHand	0	0	0	0	0	0	1
LeftHandThumb1	0	0	0	0	0	0	1
LeftHandThumb2	0	0	0	0	0	0	1
LeftHandThumb3	0	0	0	0	0	0	1
LeftHandThumb4	0	0	0	0	0	0	1
LeftHandIndex1	0	0	0	0	0	0	1
LeftHandIndex2	0	0	0	0	0	0	1
LeftHandIndex3	0	0	0	0	0	0	1
LeftHandIndex4	0	0	0	0	0	0	1
LeftHandMiddle1	0	0	0	0	0	0	1
LeftHandMiddle2	0	0	0	0	0	0	1
LeftHandMiddle3	0	0	0	0	0	0	1
LeftHandMiddle4	0	0	0	0	0	0	1
LeftHandRing1	0	0	0	0	0	0	1
LeftHandRing2	0	0	0	0	0	0	1
LeftHandRing3	0	0	0	0	0	0	1
LeftHandRing4	0	0	0	0	0	0	1
LeftHandPinky1	0	0	0	0	0	0	1
LeftHandPinky2	0	0	0	0	0	0	1
LeftHandPinky3	0	0	0	0	0	0	1
LeftHandPinky4	0	0	0	0	0	0	1
RightShoulder	0	0	0	0	0	0	1
RightArm	0	0	0	0	0	0	1
RightForeArm	0	0	0	0	0	0	1
RightHand	0	0	0	0	0	0	1
RightHandPinky1	0	0	0	0	0	0	1
RightHandPinky2	0	0	0	0	0	0	1
RightHandPinky3	0	0	0	0	0	0	1
RightHandPinky4	0	0	0	0	0	0	1
RightHandRing1	0	0	0	0	0	0	1
RightHandRing2	0	0	0	0	0	0	1
RightHandRing3	0	0	0	0	0	0	1
RightHandRing4	0	0	0	0	0	0	1
RightHandMiddle1	0	0	0	0	0	0	1
RightHandMiddle2	0	0	0	0	0	0	1
RightHandMiddle3	0	0	0	0	0	0	1
RightHandMiddle4	0	0	0	0	0	0	1
RightHandIndex1	0	0	0	0	0	0	1
RightHandIndex2	0	0	0	0	0	0	1
RightHandIndex3	0	0	0	0	0	0	1
RightHandIndex4	0	0	0	0	0	0	1
RightHandThumb1	0	0	0	0	0	0	1
RightHandThumb2	0	0	0	0	0	0	1
RightHandThumb3	0	0	0	0	0	0	1
RightHandThumb4	0	0	0	0	0	0	1
LeftUpLeg	0	0	0	0	0	0	1
LeftLeg	0	0	0	0	0	0	1
LeftFoot	0	0	0	0	0	0	1
LeftToeBase	0	0	0	0	0	0	1
RightUpLeg	0	0	0	0	0	0	1
RightLeg	0	0	0	0	0	0	1
RightFoot	0	0	0	0	0	0	1
RightToeBase	0	0	0	0	0	0	1
[Hips]
7	-0.910505414	929.8977051	99.29103088	5.841756821	-0.03836962953	0.9581066966	1.0
8	-0.5197100639	870.6100464	131.7466125	7.168167591	0.05625158548	0.6311707497	1.0
9	-0.1852498055	808.4788818	166.9565582	8.758371353	0.1794009358	0.3544464707	1.0
10	0.05851931125	749.0380859	202.9808197	10.77529621	0.3447172344	0.2321419567	1.0
[Spine]
7	0	101.8159943	1.315000057	-1.173650861	-0.05934902281	-0.9570584893	1.0
8	0	101.8159943	1.315000057	-6.184449196	-0.1345686913	-0.6192423701	1.0
9	0	101.8159943	1.315000057	-8.467303276	-0.2312799692	-0.3230213523	1.0
10	0	101.8159943	1.315000057	-8.175038338	-0.3820412755	-0.1636274308	1.0
[Spine1]
7	0	100.8349991	-10.00800037	-16.2494545	-2.235244756e-05	6.359114923e-05	1.0
8	0	100.8349991	-10.00800037	-20.37732887	-1.762280226e-05	6.506135105e-05	1.0
9	0	100.8349991	-10.00800037	-22.15260315	-1.555795097e-05	6.558616587e-05	1.0
10	0	100.8349991	-10.00800037	-21.7123127	-1.60715972e-05	6.54621108e-05	1.0
[Spine2]
7	0	91	-13.73399925	-13.34512997	1.021105902e-07	2.997563513e-07	1.0
8	0	91	-13.73399925	-20.39682007	1.416896822e-07	2.833242831e-07	1.0
9	0	91	-13.73399925	-23.53728867	1.585488434e-07	2.743306879e-07	1.0
10	0	91	-13.73399925	-22.79627228	1.546099071e-07	2.76538259e-07	1.0
[Neck]
7	0	166.7169952	-25.16200066	-4.841278076	3.408401312e-07	3.257863455e-07	1.0
8	0	166.7169952	-25.16200066	-7.044892788	3.543171374e-07	3.110773719e-07	1.0
9	0	166.7169952	-25.16200066	-8.642128944	3.63700849e-07	3.000876347e-07	1.0
10	0	166.7169952	-25.16200066	-9.730854034	3.699011302e-07	2.924406317e-07	1.0
[Head]
7	0	96.17900085	16.84999847	12.2592907	-0.1399022937	-0.05417984724	1.0
8	0	96.17900085	16.84999847	19.47040558	-0.1882427335	-0.1344350278	1.0
9	0	96.17900085	16.84999847	21.18149567	-0.2014946491	-0.1876755655	1.0
10	0	96.17900085	16.84999847	16.48085022	-0.2069610059	-0.1964083463	1.0
[LeftEye]
7	30.6760006	64.09500122	92.83599854	0	0	0	1.0
8	30.6760006	64.09500122	92.83599854	0	0	0	1.0
9	30.6760006	64.09500122	92.83599854	0	0	0	1.0
10	30.6760006	64.09500122	92.83599854	0	0	0	1.0
[RightEye]
7	-30.6760006	64.09500122	92.83499908	0	0	0	1.0
8	-30.6760006	64.09500122	92.83499908	0	0	0	1.0
9	-30.6760006	64.09500122	92.83499908	0	0	0	1.0
10	-30.6760006	64.09500122	92.83499908	0	0	0	1.0
[LeftShoulder]
7	45.70400238	109.4599991	-26.28000069	3.299854755	11.78859901	8.981340408	1.0
8	45.70400238	109.4599991	-26.28000069	8.395709038	12.55253601	20.96351624	1.0
9	45.70400238	109.4599991	-26.28000069	12.36587334	11.61651897	30.25154305	1.0
10	45.70400238	109.4599991	-26.28000069	14.14953041	9.393730164	36.62792206	1.0
[LeftArm]
7	105.923996	-5.24600029	-22.32099915	3.068442822	30.03204918	-38.42499542	1.0
8	105.923996	-5.24600029	-22.32099915	13.08335686	28.53845978	-12.37485981	1.0
9	105.923996	-5.24600029	-22.32099915	8.244683266	17.3065033	-0.5915554762	1.0
10	105.923996	-5.24600029	-22.32099915	-11.1864624	7.528419018	0.5620243549	1.0
[LeftForeArm]
7	278.414978	-0.0009999999311	0	1.110595349e-06	-8.476232529	-0.000198631722	1.0
8	278.414978	-0.0009999999311	0	6.071941243e-06	-13.05047512	-0.0002045581496	1.0
9	278.414978	-0.0009999999311	0	4.273259492e-06	-15.79745102	-0.0002075507946	1.0
10	278.414978	-0.0009999999311	0	-6.984834272e-06	-13.6843605	-0.0002016223298	1.0
[LeftHand]
7	283.2879944	0	0	-45.09587097	6.114701748	8.315224648	1.0
8	283.2879944	0	0	-67.72377014	12.02622604	8.457859993	1.0
9	283.2879944	0	0	-82.2989502	16.1169796	8.195789337	1.0
10	283.2879944	0	0	-84.13822174	18.02697754	10.5895977	1.0
[LeftHandThumb1]
7	24.6609993	-15.75	26.8239994	-8.862975121	-23.19115639	21.8207798	1.0
8	24.6609993	-15.75	26.8239994	-12.59138203	-33.10421753	31.08504677	1.0
9	24.6609993	-15.75	26.8239994	-14.06691933	-40.1452179	33.11504364	1.0
10	24.6609993	-15.75	26.8239994	-6.754802704	-44.09838486	18.5087471	1.0
[LeftHandThumb2]
7	32.29800034	-18.64699936	18.64699936	0.1644569933	3.293680906	0.103369303	1.0
8	32.29800034	-18.64699936	18.64699936	-0.889957428	2.860795498	0.1535670459	1.0
9	32.29800034	-18.64699936	18.64699936	-0.6351900697	2.839736223	0.1045774221	1.0
10	32.29800034	-18.64699936	18.64699936	4.6921525	9.848802567	1.811082602	1.0
[LeftHandThumb3]
7	26.52600098	-15.31499958	15.31499958	-15.40739346	-7.443101406	11.19916153	1.0
8	26.52600098	-15.31499958	15.31499958	-18.56906319	-10.9191618	10.76519108	1.0
9	26.52600098	-15.31499958	15.31499958	-16.95007515	-9.132209778	10.96935463	1.0
10	26.52600098	-15.31499958	15.31499958	-6.719053745	1.613042593	13.2036705	1.0
[LeftHandThumb4]
7	19.54599953	-11.28499985	11.28499985	0	0	0	1.0
8	19.54599953	-11.28499985	11.28499985	0	0	0	1.0
9	19.54599953	-11.28499985	11.28499985	0	0	0	1.0
10	19.54599953	-11.28499985	11.28499985	0	0	0	1.0
[LeftHandIndex1]
7	91.09299469	-5.170999527	22.60099792	0.6050759554	-11.41747284	10.00771236	1.0
8	91.09299469	-5.170999527	22.60099792	1.013095856	-18.78540421	15.21733379	1.0
9	91.09299469	-5.170999527	22.60099792	1.209809065	-22.75354195	14.13259697	1.0
10	91.09299469	-5.170999527	22.60099792	0.7707570195	-20.43338394	3.048899412	1.0
[LeftHandIndex2]
7	36.76399994	0	0	-3.180554719e-15	-1.590277359e-15	0	1.0
8	36.76399994	0	0	0	1.590277359e-15	-3.180554719e-15	1.0
9	36.76399994	0	0	-1.987846779e-15	-3.180554719e-15	3.180554719e-15	1.0
10	36.76399994	0	0	0.0002026994043	-0.05049614981	-6.430480425e-05	1.0
[LeftHandIndex3]
7	28.83100128	0	0	-0.1487264782	-1.310057998	12.95339203	1.0
8	28.83100128	0	0	-0.1371747702	-1.258733034	12.4374609	1.0
9	28.83100128	0	0	-0.1371718794	-1.258728027	12.4374609	1.0
10	28.83100128	0	0	-0.07700803131	-0.9457136989	9.31162262	1.0
[LeftHandIndex4]
7	23.92700005	0	0	0	0	0	1.0
8	23.92700005	0	0	0	0	0	1.0
9	23.92700005	0	0	0	0	0	1.0
10	23.92700005	0	0	0	0	0	1.0
[LeftHandMiddle1]
7	95.33399963	0	0	0.5791502595	-4.684879303	20.35355759	1.0
8	95.33399963	0	0	0.5694853067	-8.171232224	31.41528893	1.0
9	95.33399963	0	0	0.5951975584	-10.05519295	32.53813934	1.0
10	95.33399963	0	0	0.6625023484	-9.320392609	16.8653717	1.0
[LeftHandMiddle2]
7	36.98199844	0	0	5.474867521e-06	-3.282883199e-06	-5.637157301e-05	1.0
8	36.98199844	0	0	6.948765531e-06	6.834124633e-06	-5.692098784e-05	1.0
9	36.98199844	0	0	-2.771120535e-06	-3.07629648e-06	-1.482764446e-06	1.0
10	36.98199844	0	0	-0.0004026353708	0.06891044974	-0.6754505634	1.0
[LeftHandMiddle3]
7	29.50900078	0	0	-0.09584495425	-1.054124713	10.39055252	1.0
8	29.50900078	0	0	-0.1404080987	-1.273356795	12.58427906	1.0
9	29.50900078	0	0	-0.1371484697	-1.258737922	12.43747425	1.0
10	29.50900078	0	0	-0.002843305003	-0.182159096	1.785839438	1.0
[LeftHandMiddle4]
7	28.3390007	0	0	0	0	0	1.0
8	28.3390007	0	0	0	0	0	1.0
9	28.3390007	0	0	0	0	0	1.0
10	28.3390007	0	0	0	0	0	1.0
[LeftHandRing1]
7	91.04499817	-0.4390000105	-18.65100098	0.5064653754	6.963127136	20.81475067	1.0
8	91.04499817	-0.4390000105	-18.65100098	0.3842480481	8.629371643	31.95785332	1.0
9	91.04499817	-0.4390000105	-18.65100098	0.3689244092	10.51780224	33.50484085	1.0
10	91.04499817	-0.4390000105	-18.65100098	0.5790116787	13.29236603	19.28450584	1.0
[LeftHandRing2]
7	31.54000092	0	0	9.092111213e-06	-1.706789408e-05	-7.673360415e-06	1.0
8	31.54000092	0	0	4.825821634e-06	-1.14555196e-05	-4.764656114e-05	1.0
9	31.54000092	0	0	-2.056517133e-06	-4.305369657e-06	-4.85435703e-05	1.0
10	31.54000092	0	0	6.655268226e-05	-0.02859656326	2.742600554e-05	1.0
[LeftHandRing3]
7	29.37700081	0	0	-0.147284925	-1.303725719	12.88967705	1.0
8	29.37700081	0	0	-0.1371677816	-1.258726716	12.43747139	1.0
9	29.37700081	0	0	-0.1371648759	-1.258736253	12.43745804	1.0
10	29.37700081	0	0	-0.1108308062	-1.132771015	11.17548752	1.0
[LeftHandRing4]
7	26.47500038	0	0	0	0	0	1.0
8	26.47500038	0	0	0	0	0	1.0
9	26.47500038	0	0	0	0	0	1.0
10	26.47500038	0	0	0	0	0	1.0
[LeftHandPinky1]
7	80.77799988	-4.887000084	-38.06099701	1.052502275	27.66271019	13.28433514	1.0
8	80.77799988	-4.887000084	-38.06099701	2.133265257	40.51592255	17.91507339	1.0
9	80.77799988	-4.887000084	-38.06099701	2.367789984	42.60367203	16.12989426	1.0
10	80.77799988	-4.887000084	-38.06099701	2.388176441	43.53374481	9.97300148	1.0
[LeftHandPinky2]
7	36	0	0	2.518563861e-06	-3.998570264e-06	-7.608204032e-05	1.0
8	36	0	0	6.430223948e-06	-7.343239758e-06	-2.080542799e-06	1.0
9	36	0	0	-4.457136129e-06	2.001938356e-06	7.05310913e-06	1.0
10	36	0	0	0.0002425432031	-0.05254966021	0.0001351646788	1.0
[LeftHandPinky3]
7	21.14200211	0	0	-0.1485259384	-1.309183478	12.94447803	1.0
8	21.14200211	0	0	-0.1371723711	-1.258738875	12.43745995	1.0
9	21.14200211	0	0	-0.1371618509	-1.258738518	12.43745899	1.0
10	21.14200211	0	0	-0.09377019107	-1.042755961	10.27717018	1.0
[LeftHandPinky4]
7	19.75699997	0	0	0	0	0	1.0
8	19.75699997	0	0	0	0	0	1.0
9	19.75699997	0	0	0	0	0	1.0
10	19.75699997	0	0	0	0	0	1.0
[RightShoulder]
7	-45.70000076	109.4620056	-26.28000069	3.299838066	-11.78860855	-8.981348038	1.0
8	-45.70000076	109.4620056	-26.28000069	8.395665169	-12.55254745	-20.96352959	1.0
9	-45.70000076	109.4620056	-26.28000069	12.36581898	-11.61653709	-30.25156975	1.0
10	-45.70000076	109.4620056	-26.28000069	14.14945602	-9.393767357	-36.62794113	1.0
[RightArm]
7	-105.9280014	-5.248000145	-22.32099915	3.068458319	-30.03206062	38.42512894	1.0
8	-105.9280014	-5.248000145	-22.32099915	13.08330917	-28.53847885	12.37502289	1.0
9	-105.9280014	-5.248000145	-22.32099915	8.244623184	-17.30653763	0.59173733	1.0
10	-105.9280014	-5.248000145	-22.32099915	-11.18647099	-7.528398991	-0.5618092418	1.0
[RightForeArm]
7	-278.414978	0	0	2.107041837e-06	8.476020813	-2.370045877e-06	1.0
8	-278.414978	0	0	2.321382226e-06	13.05027962	-3.152119461e-06	1.0
9	-278.414978	0	0	5.558172234e-06	15.7972517	6.644038876e-06	1.0
10	-278.414978	0	0	3.901708169e-06	13.68416977	3.084245463e-06	1.0
[RightHand]
7	-283.2879944	0	0.0009999999311	-43.97995377	-5.692728996	-7.67939806	1.0
8	-283.2879944	0	0.0009999999311	-66.62980652	-11.39330673	-8.027476311	1.0
9	-283.2879944	0	0.0009999999311	-81.18783569	-15.39839363	-7.937289238	1.0
10	-283.2879944	0	0.0009999999311	-83.02877808	-17.30078125	-10.35283661	1.0
[RightHandPinky1]
7	-80.76699829	-4.885000229	-38.06000137	0.7018107772	-22.49333572	-12.86302662	1.0
8	-80.76699829	-4.885000229	-38.06000137	0.7216253877	-21.89413261	-15.45860481	1.0
9	-80.76699829	-4.885000229	-38.06000137	0.695644021	-22.06275368	-13.30513096	1.0
10	-80.76699829	-4.885000229	-38.06000137	0.5785866976	-22.6049881	-7.051368237	1.0
[RightHandPinky2]
7	-36	0	0.0009999999311	-7.701900131e-07	0.001592599903	2.455052936e-06	1.0
8	-36	0	0.0009999999311	2.248513283e-06	0.001586308121	9.83721693e-05	1.0
9	-36	0	0.0009999999311	3.061650432e-06	0.001593731577	4.416843149e-05	1.0
10	-36	0	0.0009999999311	0.0001495725737	0.03790258989	0.0001972597238	1.0
[RightHandPinky3]
7	-21.14200211	0	0	-0.1183550656	1.041303635	-12.96835804	1.0
8	-21.14200211	0	0	-0.109291546	1.001196623	-12.46047497	1.0
9	-21.14200211	0	0	-0.1092948094	1.001189709	-12.46048927	1.0
10	-21.14200211	0	0	-0.07252479345	0.8171144724	-10.14206314	1.0
[RightHandPinky4]
7	-19.75699997	0	0	0	0	0	1.0
8	-19.75699997	0	0	0	0	0	1.0
9	-19.75699997	0	0	0	0	0	1.0
10	-19.75699997	0	0	0	0	0	1.0
[RightHandRing1]
7	-91.03599548	-0.4390000105	-18.65100098	0.5387297273	-7.255410194	-21.41745758	1.0
8	-91.03599548	-0.4390000105	-18.65100098	0.4905048907	-9.138870239	-32.53633881	1.0
9	-91.03599548	-0.4390000105	-18.65100098	0.4831353426	-11.05581474	-34.04921341	1.0
10	-91.03599548	-0.4390000105	-18.65100098	0.5798825622	-13.55239201	-19.75397491	1.0
[RightHandRing2]
7	-31.54000092	0	0	2.824900064e-30	9.013309636e-07	2.095687478e-06	1.0
8	-31.54000092	0	0	0	-1.590277359e-15	3.180554719e-15	1.0
9	-31.54000092	0	0	2.385416092e-15	-0	-7.951386796e-16	1.0
10	-31.54000092	0	0	6.352153287e-05	0.02278706804	5.695790605e-05	1.0
[RightHandRing3]
7	-29.37700081	0	0	-0.1173678711	1.03696394	-12.91347694	1.0
8	-29.37700081	0	0	-0.1093004048	1.001187086	-12.46047783	1.0
9	-29.37700081	0	0	-0.1093055606	1.001184464	-12.46047688	1.0
10	-29.37700081	0	0	-0.08832161874	0.9009939432	-11.19628239	1.0
[RightHandRing4]
7	-26.47500038	0	0	0	0	0	1.0
8	-26.47500038	0	0	0	0	0	1.0
9	-26.47500038	0	0	0	0	0	1.0
10	-26.47500038	0	0	0	0	0	1.0
[RightHandMiddle1]
7	-95.32500458	0	0	0.6149796844	4.399496555	-21.19189262	1.0
8	-95.32500458	0	0	0.6750326157	7.668938637	-32.31193924	1.0
9	-95.32500458	0	0	0.7055442929	9.531559944	-33.46915054	1.0
10	-95.32500458	0	0	0.6716355085	9.104823112	-17.80176544	1.0
[RightHandMiddle2]
7	-36.98199844	0	0	6.410038168e-06	3.29201248e-06	3.942715557e-05	1.0
8	-36.98199844	0	0	-6.518545433e-06	-1.68964209e-06	-1.0844793e-05	1.0
9	-36.98199844	0	0	4.118430297e-06	1.240989832e-06	4.252499275e-05	1.0
10	-36.98199844	0	0	-0.0003186220129	-0.05481215194	0.6767556667	1.0
[RightHandMiddle3]
7	-29.50900078	0	0	-0.07638251781	0.8364307284	-10.40995407	1.0
8	-29.50900078	0	0	-0.1118968874	1.010781765	-12.60753155	1.0
9	-29.50900078	0	0	-0.1093025878	0.99917382	-12.4604845	1.0
10	-29.50900078	0	0	-0.002260525012	0.1428653896	-1.789250493	1.0
[RightHandMiddle4]
7	-28.3390007	0	0.0009999999311	0	0	0	1.0
8	-28.3390007	0	0.0009999999311	0	0	0	1.0
9	-28.3390007	0	0.0009999999311	0	0	0	1.0
10	-28.3390007	0	0.0009999999311	0	0	0	1.0
[RightHandIndex1]
7	-91.08300018	-5.167999744	22.60099792	0.5883492231	11.34268856	-10.99331665	1.0
8	-91.08300018	-5.167999744	22.60099792	0.9666566253	18.60146713	-16.36170959	1.0
9	-91.08300018	-5.167999744	22.60099792	1.126971126	22.59092712	-15.37163067	1.0
10	-91.08300018	-5.167999744	22.60099792	0.6973712444	20.50091934	-4.238904953	1.0
[RightHandIndex2]
7	-36.76399994	0	0	-5.666478842e-07	3.31278261e-06	3.358914182e-05	1.0
8	-36.76399994	0	0	-1.770433414e-06	-8.232051414e-07	2.411957939e-05	1.0
9	-36.76399994	0	0	-3.975693398e-16	-7.951386796e-16	-3.180554719e-15	1.0
10	-36.76399994	0	0	0.0001655558881	0.04024738073	-0.0001033828012	1.0
[RightHandIndex3]
7	-28.83100128	0	0	-0.1185155362	1.04199791	-12.97729778	1.0
8	-28.83100128	0	0	-0.1093028486	1.001196027	-12.46047306	1.0
9	-28.83100128	0	0	-0.1092921346	1.001185775	-12.46047401	1.0
10	-28.83100128	0	0	-0.0613755621	0.7522152662	-9.329097748	1.0
[RightHandIndex4]
7	-23.92700005	0	0	0	0	0	1.0
8	-23.92700005	0	0	0	0	0	1.0
9	-23.92700005	0	0	0	0	0	1.0
10	-23.92700005	0	0	0	0	0	1.0
[RightHandThumb1]
7	-24.64799881	-15.72700024	26.82600021	-9.609271049	24.91446877	-21.94177437	1.0
8	-24.64799881	-15.72700024	26.82600021	-13.23909664	34.70652008	-31.46691513	1.0
9	-24.64799881	-15.72700024	26.82600021	-14.6879921	41.73046494	-33.65552139	1.0
10	-24.64799881	-15.72700024	26.82600021	-7.23568821	45.84426498	-18.83825302	1.0
[RightHandThumb2]
7	-32.29800034	-18.64699936	18.64699936	0.4982231259	-4.206673145	-0.9909466505	1.0
8	-32.29800034	-18.64699936	18.64699936	-0.8478859067	-2.977503777	-0.8801413178	1.0
9	-32.29800034	-18.64699936	18.64699936	-0.5871956348	-3.00855875	-0.8263339996	1.0
10	-32.29800034	-18.64699936	18.64699936	5.372610569	-11.56051254	-2.915079594	1.0
[RightHandThumb3]
7	-26.52600098	-15.31399918	15.31399918	-12.21240997	1.9355551	-11.68030643	1.0
8	-26.52600098	-15.31399918	15.31399918	-15.35152912	5.415897846	-10.99896908	1.0
9	-26.52600098	-15.31399918	15.31399918	-13.74823856	3.624984741	-11.32992363	1.0
10	-26.52600098	-15.31399918	15.31399918	-3.422293901	-7.059256077	-14.37334728	1.0
[RightHandThumb4]
7	-19.54599953	-11.28499985	11.28499985	0	0	0	1.0
8	-19.54599953	-11.28499985	11.28499985	0	0	0	1.0
9	-19.54599953	-11.28499985	11.28499985	0	0	0	1.0
10	-19.54599953	-11.28499985	11.28499985	0	0	0	1.0
[LeftUpLeg]
7	82.07800293	-67.51699829	-15.99599934	-23.63454819	1.229143858	1.157069921	1.0
8	82.07800293	-67.51699829	-15.99599934	-28.13522339	3.694010973	2.978182554	1.0
9	82.07800293	-67.51699829	-15.99599934	-31.15074348	5.449823856	4.692291737	1.0
10	82.07800293	-67.51699829	-15.99599934	-33.0937233	4.950278759	5.804247856	1.0
[LeftLeg]
7	0	-443.7049866	2.845999956	50.90307999	-1.881271482	-8.928191185	1.0
8	0	-443.7049866	2.845999956	63.24903107	1.522173524	-10.54693222	1.0
9	0	-443.7049866	2.845999956	73.92993164	4.622021675	-10.97815132	1.0
10	0	-443.7049866	2.845999956	82.50106812	6.880932331	-10.04554653	1.0
[LeftFoot]
7	0	-444.2789917	-29.8219986	-34.54197693	5.876668453	2.892186165	1.0
8	0	-444.2789917	-29.8219986	-41.99571609	3.144382477	5.708954334	1.0
9	0	-444.2789917	-29.8219986	-51.11729813	1.305115223	8.122783661	1.0
10	0	-444.2789917	-29.8219986	-59.87892151	0.6243572235	9.039827347	1.0
[LeftToeBase]
7	0	-87.28699493	107.1060028	4.785675526	-0.02435332164	0.06865089387	1.0
8	0	-87.28699493	107.1060028	0.252319783	-0.000265878567	0.001278799376	1.0
9	0	-87.28699493	107.1060028	-6.575592124e-05	-2.667878505e-07	-2.628648872e-06	1.0
10	0	-87.28699493	107.1060028	-5.956515452e-06	3.307978886e-06	2.603987014e-06	1.0
[RightUpLeg]
7	-82.07800293	-67.51699829	-15.99599934	-35.34133148	-2.480286121	-2.154781818	1.0
8	-82.07800293	-67.51699829	-15.99599934	-48.43193054	-4.666117191	-2.622098684	1.0
9	-82.07800293	-67.51699829	-15.99599934	-61.34846115	-5.924688339	-2.526857376	1.0
10	-82.07800293	-67.51699829	-15.99599934	-74.10230255	-4.907286167	-3.046876907	1.0
[RightLeg]
7	0	-443.7049866	2.861999989	54.25598145	3.197417974	10.28640175	1.0
8	0	-443.7049866	2.861999989	66.59430695	-1.379156828	11.46119118	1.0
9	0	-443.7049866	2.861999989	76.38982391	-4.770406246	11.35110855	1.0
10	0	-443.7049866	2.861999989	83.37475586	-6.793838024	10.02244186	1.0
[RightFoot]
7	0	-444.2770081	-29.83799934	-24.1896553	-7.5198946	-3.101877451	1.0
8	0	-444.2770081	-29.83799934	-24.94164085	-5.038762093	-5.333110809	1.0
9	0	-444.2770081	-29.83799934	-23.59924507	-3.843350172	-6.650616646	1.0
10	0	-444.2770081	-29.83799934	-20.12302208	-4.239370823	-5.781076908	1.0
[RightToeBase]
7	0	-87.28699493	107.1060028	-1.515573604e-05	-2.909377805e-08	-1.999551955e-07	1.0
8	0	-87.28699493	107.1060028	-1.515573604e-05	-2.909377805e-08	-1.999551955e-07	1.0
9	0	-87.28699493	107.1060028	-1.515573604e-05	-2.909377805e-08	-1.999551955e-07	1.0
10	0	-87.28699493	107.1060028	-1.515573604e-05	-2.909377805e-08	-1.999551955e-07	1.0
[EndOfFile]
